# xmcd
#
# Track frame offsets: 
#        150
#        60045
#        119717
#        179932
#        235335
#        278597
#
# Disc length: 4141 seconds
#
# Revision: 0
# Processed by: cddbd v1.4PL0 Copyright (c) Steve Scherf et al.
# Submitted via: ExactAudioCopy v0.95a1
#
DISCID=53102b06
DTITLE=魏龍豪與吳兆南 - 相聲補軼02
DYEAR=1900
DGENRE=Timer
TTITLE0=人畜之間
TTITLE1=大審案
TTITLE2=考字兒
TTITLE3=各有所怕
TTITLE4=論府第
TTITLE5=金剛腿
EXTD=
EXTT0=
EXTT1=
EXTT2=
EXTT3=
EXTT4=
EXTT5=
PLAYORDER=
